<svg id="instagram" xmlns="http://www.w3.org/2000/svg" width="44" height="44" viewBox="0 0 44 44">
  <rect id="Rectangle" width="44" height="44" fill="none"/>
  <g id="Oval" transform="translate(0 0)" fill="none" stroke="#3dac97" stroke-width="1">
    <circle cx="22" cy="22" r="22" stroke="none"/>
    <circle cx="22" cy="22" r="21.5" fill="none"/>
  </g>
  <path id="Shape" d="M16.134,20H3.866A3.87,3.87,0,0,1,0,16.134V3.866A3.87,3.87,0,0,1,3.866,0H16.134A3.87,3.87,0,0,1,20,3.866V16.134A3.87,3.87,0,0,1,16.134,20ZM1.948,7.946v8.188a1.92,1.92,0,0,0,1.918,1.918H16.134a1.92,1.92,0,0,0,1.918-1.918V7.946H15.065a5.469,5.469,0,1,1-10.13,0ZM10,6.479A3.52,3.52,0,1,0,13.521,10a3.485,3.485,0,0,0-.668-2.054A3.53,3.53,0,0,0,10,6.479ZM17.686,2.3l-.443,0-2.949.008L14.307,5.7l3.379-.011Z" transform="translate(12 12)" fill="#3dac97"/>
</svg>
