<svg id="linkedin" xmlns="http://www.w3.org/2000/svg" width="44" height="44" viewBox="0 0 44 44">
  <rect id="Rectangle" width="44" height="44" transform="translate(0)" fill="none"/>
  <g id="Oval" transform="translate(0 0)" fill="none" stroke="#3dac97" stroke-width="1">
    <circle cx="22" cy="22" r="22" stroke="none"/>
    <circle cx="22" cy="22" r="21.5" fill="none"/>
  </g>
  <path id="Shape" d="M11.162,20h0L6.783,20c0-.1.057-12.447,0-13.587h4.379V8.546a3.936,3.936,0,0,1,3.892-2.263c3.1,0,4.946,2.3,4.946,6.161V20l-4.42,0V12.968c0-2-.786-3.094-2.212-3.094a2.273,2.273,0,0,0-2.11,1.665,2.812,2.812,0,0,0-.1.966V20ZM4.4,20H.505V6.413H4.4V20ZM2.353,4.714H2.325A2.263,2.263,0,0,1,0,2.361,2.269,2.269,0,0,1,2.382,0a2.26,2.26,0,0,1,2.35,2.357A2.265,2.265,0,0,1,2.353,4.714Z" transform="translate(12 12)" fill="#3dac97"/>
</svg>
